<?xml version="1.0" standalone="no"?>
<!DOCTYPE svg PUBLIC "-//W3C//DTD SVG 20010904//EN"
 "http://www.w3.org/TR/2001/REC-SVG-20010904/DTD/svg10.dtd">
<svg version="1.0" xmlns="http://www.w3.org/2000/svg"
 width="379.000000pt" height="379.000000pt" viewBox="0 0 379.000000 379.000000"
 preserveAspectRatio="xMidYMid meet">
<metadata>
Created by potrace 1.14, written by Peter Selinger 2001-2017
</metadata>
<g transform="translate(0.000000,379.000000) scale(0.100000,-0.100000)"
fill="#000000" stroke="none">
<path d="M788 3780 c-21 -13 -39 -97 -42 -199 -5 -135 36 -274 111 -379 18
-26 33 -50 33 -54 0 -8 -7 -4 -178 100 -118 73 -121 74 -174 69 -29 -3 -82
-16 -118 -27 -87 -29 -304 -137 -330 -165 l-21 -22 33 -32 c45 -44 172 -116
274 -157 118 -46 175 -53 311 -39 57 6 61 5 57 -13 -3 -10 -30 -50 -61 -88
-79 -97 -194 -275 -245 -377 -30 -61 -48 -87 -60 -87 -34 0 -148 -59 -179 -92
-32 -34 -83 -133 -95 -184 -3 -16 -8 -74 -9 -130 -3 -88 3 -141 30 -254 15
-65 79 -200 125 -263 17 -24 40 -79 54 -127 41 -149 104 -277 198 -405 67 -90
195 -215 228 -223 7 -1 19 -9 27 -17 8 -9 19 -13 24 -9 5 3 12 -2 15 -10 3 -9
12 -16 19 -16 7 0 15 -4 17 -10 2 -5 13 -11 25 -13 11 -1 28 -9 37 -16 8 -7
20 -10 26 -6 5 3 10 2 10 -4 0 -5 10 -13 23 -17 12 -4 43 -17 70 -29 26 -13
44 -18 40 -12 -4 6 6 2 21 -11 16 -12 37 -22 47 -22 10 0 21 -5 24 -10 3 -6
16 -10 29 -10 12 0 26 -4 32 -10 5 -5 24 -10 42 -12 17 -1 32 -6 32 -11 0 -4
4 -5 10 -2 5 3 10 1 10 -5 0 -6 4 -9 9 -6 5 3 26 -30 47 -74 30 -63 53 -94
109 -147 39 -38 85 -76 101 -85 l30 -17 40 71 c92 166 124 230 118 239 -3 5 0
8 8 7 7 -2 13 4 13 12 0 8 8 26 18 40 17 24 18 24 164 23 82 0 152 1 156 4 4
3 44 7 88 9 45 2 85 6 90 10 5 3 24 8 42 10 18 3 41 7 52 8 11 2 20 4 20 5 0
3 20 8 46 14 10 1 24 9 33 16 9 7 16 11 16 7 0 -4 13 0 30 9 16 8 32 14 35 13
2 -2 12 4 22 12 10 9 23 17 28 18 32 7 45 14 40 22 -3 5 3 7 14 5 11 -2 25 3
32 11 6 8 18 14 25 14 8 0 14 5 14 11 0 5 5 7 10 4 6 -3 10 -3 10 2 0 4 14 16
31 25 17 10 27 22 24 28 -4 6 -1 9 7 8 7 -2 12 3 11 9 -2 7 0 12 5 10 16 -5
54 44 77 99 19 46 23 73 20 124 -3 65 -2 66 39 112 179 198 350 505 412 738
43 162 64 300 64 430 -1 293 -66 519 -217 755 -94 144 -307 326 -473 403 -72
33 -236 90 -284 97 -17 3 -42 7 -56 10 -14 3 -50 7 -80 11 -30 3 -58 10 -61
16 -4 6 -7 28 -7 50 -1 40 -5 66 -23 149 -8 35 -17 49 -36 58 -40 18 -67 -6
-82 -74 -7 -31 -23 -86 -35 -123 l-23 -67 -49 -3 c-85 -5 -265 -41 -379 -76
-94 -29 -129 -35 -240 -39 -150 -6 -174 -10 -269 -44 l-69 -25 -37 38 c-70 75
-130 197 -165 334 -20 81 -45 104 -87 80z"/>
</g>
</svg>
